<svg xmlns="http://www.w3.org/2000/svg" xmlns:xlink="http://www.w3.org/1999/xlink" width="40" zoomAndPan="magnify" viewBox="0 0 30 30.000001" height="40" preserveAspectRatio="xMidYMid meet" version="1.0"><defs><clipPath id="28b57def98"><path d="M 9.195312 8.710938 L 20.804688 8.710938 L 20.804688 20.324219 L 9.195312 20.324219 Z M 9.195312 8.710938 " clip-rule="nonzero"/></clipPath></defs><g clip-path="url(#28b57def98)"><path fill="#80bdff" d="M 12.59375 8.75 C 11.976562 8.777344 11.554688 8.878906 11.1875 9.023438 C 10.804688 9.171875 10.480469 9.371094 10.160156 9.691406 C 9.835938 10.015625 9.640625 10.339844 9.492188 10.722656 C 9.347656 11.09375 9.253906 11.515625 9.226562 12.132812 C 9.199219 12.75 9.191406 12.949219 9.195312 14.523438 C 9.195312 16.101562 9.203125 16.296875 9.234375 16.917969 C 9.261719 17.535156 9.363281 17.957031 9.507812 18.324219 C 9.65625 18.707031 9.855469 19.03125 10.175781 19.351562 C 10.5 19.675781 10.824219 19.871094 11.207031 20.019531 C 11.574219 20.164062 11.996094 20.261719 12.617188 20.285156 C 13.234375 20.3125 13.433594 20.320312 15.007812 20.316406 C 16.585938 20.3125 16.78125 20.308594 17.402344 20.277344 C 18.019531 20.25 18.441406 20.148438 18.808594 20.003906 C 19.191406 19.855469 19.515625 19.65625 19.835938 19.335938 C 20.15625 19.011719 20.355469 18.6875 20.503906 18.304688 C 20.644531 17.933594 20.742188 17.511719 20.769531 16.894531 C 20.796875 16.277344 20.804688 16.078125 20.800781 14.503906 C 20.796875 12.925781 20.789062 12.730469 20.761719 12.109375 C 20.730469 11.492188 20.632812 11.070312 20.488281 10.703125 C 20.339844 10.320312 20.140625 9.996094 19.816406 9.675781 C 19.496094 9.351562 19.171875 9.15625 18.789062 9.007812 C 18.417969 8.863281 17.996094 8.769531 17.378906 8.742188 C 16.761719 8.714844 16.5625 8.707031 14.984375 8.710938 C 13.410156 8.714844 13.214844 8.71875 12.59375 8.75 M 12.660156 19.242188 C 12.097656 19.21875 11.789062 19.121094 11.582031 19.042969 C 11.3125 18.9375 11.117188 18.8125 10.914062 18.613281 C 10.710938 18.410156 10.585938 18.214844 10.480469 17.945312 C 10.398438 17.742188 10.304688 17.433594 10.277344 16.867188 C 10.25 16.257812 10.242188 16.074219 10.238281 14.523438 C 10.238281 12.972656 10.242188 12.789062 10.269531 12.175781 C 10.292969 11.613281 10.386719 11.304688 10.464844 11.101562 C 10.570312 10.828125 10.695312 10.636719 10.898438 10.433594 C 11.101562 10.226562 11.296875 10.101562 11.566406 9.996094 C 11.769531 9.917969 12.078125 9.820312 12.644531 9.792969 C 13.253906 9.765625 13.4375 9.757812 14.988281 9.757812 C 16.539062 9.753906 16.722656 9.757812 17.332031 9.785156 C 17.898438 9.808594 18.207031 9.902344 18.410156 9.984375 C 18.683594 10.089844 18.875 10.210938 19.078125 10.414062 C 19.28125 10.617188 19.410156 10.8125 19.515625 11.082031 C 19.59375 11.285156 19.691406 11.59375 19.71875 12.160156 C 19.746094 12.769531 19.753906 12.953125 19.753906 14.503906 C 19.757812 16.054688 19.753906 16.238281 19.726562 16.847656 C 19.699219 17.414062 19.605469 17.722656 19.527344 17.925781 C 19.421875 18.199219 19.296875 18.390625 19.09375 18.59375 C 18.890625 18.796875 18.699219 18.925781 18.429688 19.03125 C 18.222656 19.109375 17.917969 19.207031 17.351562 19.230469 C 16.738281 19.261719 16.554688 19.269531 15.007812 19.269531 C 13.457031 19.273438 13.273438 19.269531 12.660156 19.242188 M 17.394531 11.410156 C 17.394531 11.796875 17.707031 12.105469 18.089844 12.105469 C 18.476562 12.105469 18.785156 11.792969 18.785156 11.410156 C 18.785156 11.023438 18.472656 10.710938 18.085938 10.714844 C 17.703125 10.714844 17.390625 11.027344 17.394531 11.410156 M 12.015625 14.519531 C 12.019531 16.164062 13.355469 17.496094 15.003906 17.492188 C 16.648438 17.488281 17.980469 16.152344 17.976562 14.507812 C 17.972656 12.863281 16.636719 11.53125 14.992188 11.535156 C 13.347656 11.535156 12.015625 12.875 12.015625 14.519531 M 13.0625 14.515625 C 13.0625 13.449219 13.925781 12.582031 14.992188 12.578125 C 16.0625 12.578125 16.929688 13.441406 16.933594 14.511719 C 16.933594 15.578125 16.070312 16.445312 15 16.449219 C 13.933594 16.449219 13.066406 15.585938 13.0625 14.515625 " fill-opacity="1" fill-rule="nonzero"/></g></svg>